<svg width="32" height="32" viewBox="0 0 32 32" fill="none" xmlns="http://www.w3.org/2000/svg">
  <!-- Dark theme version -->
  <rect width="32" height="32" rx="6" fill="#0f172a"/>
  
  <!-- Dollar sign -->
  <path fill="#06b6d4" d="M16 6C12.7 6 11 7.7 11 10.5v2h2v-2c0-1.4 0.8-2 2-2s2 0.6 2 2c0 1-0.6 1.8-1.5 2.2v2c1.4 0.4 2.5 1.7 2.5 3.3v2c0 2.7-2.1 4.5-4.5 4.5s-4.5-1.8-4.5-4.5v-2h2v2c0 1.4 0.8 2 2 2s2-0.6 2-2v-2c0-1-0.6-1.8-1.5-2.2v-2c-1.4-0.4-2.5-1.7-2.5-3.3v-2c0-2.8 2.1-4.5 4.5-4.5z" opacity="0.9"/>
  
  <!-- Vertical lines -->
  <line x1="16" y1="5" x2="16" y2="7" stroke="#10b981" stroke-width="1" stroke-linecap="round"/>
  <line x1="16" y1="25" x2="16" y2="27" stroke="#10b981" stroke-width="1" stroke-linecap="round"/>
</svg>
