<svg width="180" height="180" viewBox="0 0 180 180" fill="none" xmlns="http://www.w3.org/2000/svg">
  <style>
    @media (prefers-color-scheme: light) {
      .background { fill: white; }
      .primary { fill: #06b6d4; }
      .secondary { fill: #10b981; }
      .accent { fill: #0f172a; }
    }
    @media (prefers-color-scheme: dark) {
      .background { fill: #0f172a; }
      .primary { fill: #06b6d4; }
      .secondary { fill: #10b981; }
      .accent { fill: #ffffff; }
    }
  </style>
  <rect class="background" width="180" height="180" rx="37" />
  
  <!-- Outer circle gradient ring -->
  <circle cx="90" cy="90" r="75" fill="none" stroke="url(#gradient1)" stroke-width="2" opacity="0.3"/>
  
  <!-- Dollar sign with gradient -->
  <g>
    <!-- Main dollar symbol -->
    <path class="primary" d="M90 35C75.6 35 65 45.6 65 60v10h12V60c0-5.6 4.4-10 10-10s10 4.4 10 10c0 4-2.4 7.6-6 9.2V85c5.6 1.6 10 6.8 10 13v12c0 14.4-10.6 25-25 25s-25-10.6-25-25v-10h12v10c0 5.6 4.4 10 10 10s10-4.4 10-10v-12c0-4-2.4-7.6-6-9.2V69c-5.6-1.6-10-6.8-10-13V44c0-14.4 10.6-25 25-25z" opacity="0.8"/>
    
    <!-- Vertical lines for dollar -->
    <line x1="90" y1="30" x2="90" y2="50" class="secondary" stroke-width="3" stroke-linecap="round"/>
    <line x1="90" y1="130" x2="90" y2="150" class="secondary" stroke-width="3" stroke-linecap="round"/>
  </g>
  
  <!-- Coins accent -->
  <circle cx="60" cy="120" r="8" class="primary" opacity="0.6"/>
  <circle cx="120" cy="115" r="8" class="secondary" opacity="0.6"/>
  
  <!-- Gradient definition -->
  <defs>
    <linearGradient id="gradient1" x1="0%" y1="0%" x2="100%" y2="100%">
      <stop offset="0%" style="stop-color:#06b6d4;stop-opacity:1" />
      <stop offset="100%" style="stop-color:#10b981;stop-opacity:1" />
    </linearGradient>
  </defs>
</svg>
  <defs>
    <clipPath id="clip0_7960_43945">
      <rect width="180" height="180" fill="white" />
    </clipPath>
  </defs>
</svg>